#!OML:ASF F:\VICON\USERDATA\INSTALL\rory3\rory3.ASF
:FULLY-SPECIFIED
:DEGREES
682
root 0.305961 17.6728 -0.874782 -2.33419 -17.9387 2.46234
lowerback 0.380599 -3.53748 -7.62065
upperback -4.07589 -4.86372 2.5608
thorax -3.61327 -2.14032 7.09039
lowerneck -17.4632 -3.52472 -12.3972
upperneck 29.7701 -4.62278 10.0167
head 13.4864 -2.19694 5.35107
rclavicle 1.04461e-013 -7.95139e-015
rhumerus 66.823 -62.968 -43.5631
rradius 61.5279
rwrist -5.89339
rhand -44.7097 -5.05922
rfingers 7.12502
rthumb -17.5043 -34.2912
lclavicle 1.04461e-013 -7.95139e-015
lhumerus 65.4445 64.4343 45.0988
lradius 64.8871
lwrist 18.2853
lhand -22.0919 13.3931
lfingers 7.12502
lthumb 4.32006 43.329
rfemur -10.9224 1.65992 13.0832
rtibia 35.8479
rfoot -20.9385 -7.95085
rtoes 4.66361
lfemur 9.71123 1.30665 -19.1521
ltibia 22.1025
lfoot -12.3666 23.9035
ltoes -31.198
683
root 0.229378 17.6829 -0.867983 -2.25541 -18.3869 2.26182
lowerback 0.351151 -3.51476 -7.42204
upperback -4.11776 -4.82697 2.57032
thorax -3.66021 -2.12495 6.9879
lowerneck -17.2508 -3.51978 -12.2182
upperneck 29.7738 -4.69155 9.96579
head 13.4446 -2.22002 5.28534
rclavicle -5.725e-014 7.95139e-016
rhumerus 65.2728 -62.5271 -41.7618
rradius 61.0923
rwrist -5.86375
rhand -44.3473 -4.76401
rfingers 7.12502
rthumb -17.1555 -34.0267
lclavicle -5.725e-014 7.95139e-016
lhumerus 64.0656 63.7752 43.5021
lradius 63.4819
lwrist 18.1619
lhand -21.9291 13.7496
lfingers 7.12502
lthumb 4.47723 43.6823
rfemur -10.7972 1.75387 13.5505
rtibia 35.5869
rfoot -20.7906 -7.69821
rtoes 4.65394
lfemur 9.77703 1.20373 -18.788
ltibia 22.2389
lfoot -12.1353 24.1839
ltoes -30.9564
684
root 0.151358 17.6912 -0.858017 -2.23041 -18.8242 2.24219
lowerback 0.206954 -3.52015 -7.42384
upperback -4.0631 -4.82193 2.57701
thorax -3.52108 -2.1309 6.98211
lowerneck -17.3297 -3.52462 -12.1856
upperneck 29.9054 -4.72014 9.98559
head 13.5214 -2.22858 5.28986
rclavicle -6.05299e-014 -2.8625e-014
rhumerus 64.3113 -62.1044 -40.5423
rradius 60.7227
rwrist -5.58004
rhand -43.7707 -4.16768
rfingers 7.12502
rthumb -16.6005 -33.4777
lclavicle -6.05299e-014 -2.8625e-014
lhumerus 63.0771 63.2843 42.3203
lradius 62.0074
lwrist 17.4932
lhand -21.4328 13.9539
lfingers 7.12502
lthumb 4.95642 43.876
rfemur -10.679 1.79753 13.8169
rtibia 35.3272
rfoot -20.6433 -7.46993
rtoes 4.24012
lfemur 9.83587 1.16968 -18.6009
ltibia 22.4015
lfoot -11.8624 24.4132
ltoes -30.9583
685
root 0.0720161 17.6981 -0.852889 -2.19968 -19.3297 2.19839
lowerback 0.0728413 -3.5388 -7.44104
upperback -3.96206 -4.8335 2.61913
thorax -3.33208 -2.148 7.02103
lowerneck -17.4618 -3.52773 -12.3103
upperneck 29.9593 -4.72666 10.1442
head 13.5822 -2.2247 5.38036
rclavicle -4.96962e-015 -1.98785e-014
rhumerus 63.5239 -61.6846 -39.4515
rradius 60.4338
rwrist -5.32662
rhand -42.9546 -3.73805
rfingers 7.12502
rthumb -15.8146 -33.1121
lclavicle -4.96962e-015 -1.98785e-014
lhumerus 61.8134 62.8994 40.7574
lradius 60.4142
lwrist 16.8357
lhand -21.3446 13.98
lfingers 7.12502
lthumb 5.04163 43.9
rfemur -10.586 1.95902 14.1246
rtibia 35.0775
rfoot -20.5198 -7.2155
rtoes 4.6348
lfemur 9.87056 1.15526 -18.4027
ltibia 22.6076
lfoot -11.5005 24.7378
ltoes -30.8226
686
root -0.0076791 17.7063 -0.850677 -2.18685 -19.8642 2.04006
lowerback -0.00395941 -3.50262 -7.35618
upperback -3.81299 -4.77313 2.63097
thorax -3.14722 -2.13366 6.97233
lowerneck -17.505 -3.56055 -12.3073
upperneck 29.8613 -4.85106 10.397
head 13.575 -2.24445 5.45933
rclavicle -1.51076e-014 9.54166e-015
rhumerus 62.525 -61.4255 -38.1803
rradius 60.1999
rwrist -5.02392
rhand -42.3152 -3.72292
rfingers 7.12502
rthumb -15.1988 -33.1447
lclavicle -1.51076e-014 9.54166e-015
lhumerus 60.6694 62.4195 39.2409
lradius 58.9032
lwrist 16.3656
lhand -21.3995 14.3416
lfingers 7.12502
lthumb 4.98864 44.2629
rfemur -10.4286 2.19528 14.5617
rtibia 34.8402
rfoot -20.3584 -6.96509
rtoes 5.06073
lfemur 9.92411 1.26999 -18.039
ltibia 22.8681
lfoot -11.1553 24.9728
ltoes -30.8558
687
root -0.0856076 17.7134 -0.842359 -2.20431 -20.3565 1.88299
lowerback -0.116544 -3.44077 -7.20314
upperback -3.6703 -4.67622 2.59013
thorax -2.9641 -2.10294 6.82753
lowerneck -17.4788 -3.6143 -12.1121
upperneck 29.7803 -5.02542 10.4828
head 13.557 -2.28765 5.42612
rclavicle 4.72114e-014 1.82882e-014
rhumerus 61.2433 -61.2225 -36.6575
rradius 60.068
rwrist -4.84152
rhand -41.9681 -3.52804
rfingers 7.12502
rthumb -14.8644 -32.9748
lclavicle 4.72114e-014 1.82882e-014
lhumerus 59.4334 61.7991 37.6144
lradius 57.5135
lwrist 15.8897
lhand -21.2232 14.8517
lfingers 7.12502
lthumb 5.15885 44.7689
rfemur -10.1803 2.3373 14.9711
rtibia 34.5981
rfoot -20.21 -6.56813
rtoes 5.7682
lfemur 10.0002 1.33307 -17.7068
ltibia 23.2039
lfoot -10.7829 25.2078
ltoes -31.0242
688
root -0.16136 17.7189 -0.833938 -2.27458 -20.8258 1.86647
lowerback -0.196499 -3.40873 -7.11786
upperback -3.53317 -4.62443 2.49534
thorax -2.7971 -2.09211 6.66706
lowerneck -17.5113 -3.6549 -11.9029
upperneck 29.6961 -5.15173 10.4964
head 13.5405 -2.31586 5.3684
rclavicle 6.1822e-014 5.56597e-015
rhumerus 60.2607 -61.0146 -35.5286
rradius 60.054
rwrist -4.6889
rhand -41.4225 -3.10754
rfingers 7.12502
rthumb -14.3388 -32.5924
lclavicle 6.1822e-014 5.56597e-015
lhumerus 58.0999 61.2071 35.9125
lradius 56.2505
lwrist 15.2607
lhand -21.093 15.0331
lfingers 7.12502
lthumb 5.28452 44.9473
rfemur -9.91659 2.50426 15.223
rtibia 34.3474
rfoot -20.0773 -6.13065
rtoes 6.27004
lfemur 10.0719 1.20881 -17.5994
ltibia 23.574
lfoot -10.4479 25.6067
ltoes -31.0176
689
root -0.239082 17.7238 -0.828385 -2.34241 -21.3192 1.80892
lowerback -0.206254 -3.3941 -7.08234
upperback -3.4347 -4.60069 2.51115
thorax -2.69354 -2.08857 6.65845
lowerneck -17.4299 -3.65919 -12.045
upperneck 29.5713 -5.17443 10.6801
head 13.4834 -2.3197 5.4593
rclavicle -8.2595e-014 3.18055e-015
rhumerus 59.688 -60.6829 -34.69
rradius 60.0109
rwrist -4.22388
rhand -40.9288 -2.91915
rfingers 7.12502
rthumb -13.863 -32.4371
lclavicle -8.2595e-014 3.18055e-015
lhumerus 56.4634 60.658 34.034
lradius 55.053
lwrist 14.6906
lhand -20.7499 15.2721
lfingers 7.12502
lthumb 5.61582 45.1777
rfemur -9.66005 2.65973 15.5292
rtibia 34.0626
rfoot -19.8812 -5.7536
rtoes 6.29833
lfemur 10.0981 1.09244 -17.4225
ltibia 24.0056
lfoot -10.222 26.0271
ltoes -30.7966
690
root -0.31767 17.7303 -0.821872 -2.3976 -21.8124 1.6749
lowerback -0.189215 -3.38581 -7.0211
upperback -3.34738 -4.58612 2.58607
thorax -2.61243 -2.08832 6.70006
lowerneck -17.3531 -3.64796 -12.3048
upperneck 29.5354 -5.1839 10.9843
head 13.4706 -2.31794 5.62877
rclavicle -7.15625e-015 -1.74931e-014
rhumerus 59.0908 -60.2554 -33.7721
rradius 60.0148
rwrist -3.46556
rhand -41.1257 -3.15531
rfingers 7.12502
rthumb -14.0527 -32.6602
lclavicle -7.15625e-015 -1.74931e-014
lhumerus 54.4631 60.0737 31.7105
lradius 53.7971
lwrist 14.3376
lhand -20.4168 15.61
lfingers 7.12502
lthumb 5.93743 45.5068
rfemur -9.36253 2.80982 15.9251
rtibia 33.7439
rfoot -19.6897 -5.54521
rtoes 6.11172
lfemur 10.0978 1.10936 -17.0845
ltibia 24.5028
lfoot -10.1215 26.2252
ltoes -29.9904
